# Blender v2.76 (sub 0) OBJ File: 'axe1.blend'
# www.blender.org
o Handpainted_axe_Plane.007
v 1.099847 1.007306 0.059989
v 1.179502 1.355393 0.059989
v 0.700545 1.282327 0.059989
v 0.244963 1.348208 0.059989
v -0.195593 1.120902 0.059989
v -0.302768 0.857183 0.059989
v 0.814930 2.715431 0.059989
v 1.002565 2.412287 0.059989
v 0.552637 2.318183 0.059989
v 0.139318 2.025072 0.059989
v -0.330206 1.975813 0.059989
v -0.817376 2.197551 0.059989
v -1.037861 1.596842 0.059989
v -0.720658 1.243733 0.059988
v -0.674105 0.994239 0.059989
v -0.471074 0.963903 0.059989
v -0.887107 1.876992 0.059989
v -0.838836 1.459601 0.059988
v 1.161197 1.713867 0.059989
v 1.100456 2.066371 0.059989
v -0.612985 -2.251605 0.012929
v 0.208174 -2.552481 0.012928
v -0.282741 -2.389463 0.012928
v -0.435307 -2.181427 0.012929
v 0.166218 -2.776253 0.012928
v -0.113396 -2.843511 0.012929
v -0.502402 -2.464158 0.012929
v -0.466319 -2.752938 0.012929
v 0.026574 -2.979245 0.012928
v -0.299367 -2.765782 0.012929
v -0.065163 -2.523949 0.012928
v -0.566896 0.988733 0.023091
v -0.386395 0.917231 0.022383
v -1.122356 -0.413471 0.069569
v -0.941855 -0.484973 0.068860
v -1.252602 -0.525551 0.075564
v -1.274188 -0.740525 0.072056
v -0.590116 -2.254783 -0.015151
v -1.138082 -0.875085 0.098923
v -0.926163 -0.787592 0.098923
v -0.459513 -2.200372 -0.015151
v -0.767091 -1.030564 0.077260
v -0.969213 -1.114462 0.077227
v -0.738010 -1.426362 0.031054
v -0.919631 -1.501570 0.031038
v -0.594939 0.189347 0.045621
v -0.775440 0.260850 0.046330
v 1.099847 1.007306 -0.257836
v 1.179502 1.355393 -0.257836
v 0.700545 1.282327 -0.257836
v 0.244962 1.348208 -0.257836
v -0.195593 1.120902 -0.257836
v -0.302768 0.857183 -0.257836
v 0.814930 2.715431 -0.257836
v 1.002564 2.412287 -0.257836
v 0.552637 2.318182 -0.257836
v 0.139318 2.025072 -0.257836
v -0.330206 1.975813 -0.257836
v -0.817377 2.197551 -0.257836
v -1.037862 1.596842 -0.257836
v -0.720658 1.243733 -0.257836
v -0.674105 0.994239 -0.257836
v -0.471074 0.963903 -0.257836
v -0.887107 1.876992 -0.257836
v -0.838837 1.459601 -0.257836
v 1.161197 1.713866 -0.257836
v 1.100455 2.066371 -0.257836
v -0.612985 -2.251605 -0.210776
v 0.208174 -2.552481 -0.210775
v -0.282741 -2.389462 -0.210776
v -0.435307 -2.181427 -0.210776
v 0.166218 -2.776252 -0.210776
v -0.113396 -2.843511 -0.210776
v -0.502402 -2.464158 -0.210776
v -0.466319 -2.752937 -0.210776
v 0.026574 -2.979245 -0.210776
v -0.299367 -2.765781 -0.210776
v -0.065163 -2.523949 -0.210776
v -0.566896 0.988733 -0.220938
v -0.386395 0.917231 -0.220230
v -1.122356 -0.413471 -0.267416
v -0.941855 -0.484973 -0.266707
v -1.252602 -0.525551 -0.273412
v -1.274188 -0.740525 -0.269904
v -0.590116 -2.254783 -0.182696
v -1.138082 -0.875085 -0.296770
v -0.926163 -0.787592 -0.296770
v -0.459513 -2.200372 -0.182696
v -0.767091 -1.030564 -0.275107
v -0.969213 -1.114462 -0.275075
v -0.738010 -1.426362 -0.228902
v -0.919631 -1.501570 -0.228886
v -0.594939 0.189347 -0.243469
v -0.775441 0.260850 -0.244177
v 1.368703 1.344885 -0.098924
v 1.184418 0.567651 -0.098925
v 0.937305 0.905880 -0.098925
v 0.632728 1.099066 -0.098925
v 0.278187 1.150336 -0.098925
v -0.053890 0.979000 -0.098925
v -0.222376 0.653570 -0.098925
v 1.161501 2.523921 -0.098924
v 0.720319 3.191292 -0.098924
v 0.630753 2.768050 -0.098925
v 0.414526 2.454490 -0.098925
v 0.069608 2.209887 -0.098925
v -0.300650 2.171042 -0.098925
v -0.685857 2.336193 -0.098925
v -1.052255 2.673856 -0.098925
v -1.129567 1.747284 -0.098925
v -1.368703 1.498533 -0.098925
v -0.993933 2.251043 -0.098925
v -0.860138 1.155970 -0.098925
v -0.810058 0.887715 -0.098925
v -1.083642 1.411014 -0.098925
v -0.323936 0.793749 -0.098925
v -0.678362 0.934961 -0.098925
v -0.491587 0.912142 -0.098925
v -1.020360 1.976803 -0.098925
v -0.950303 1.320545 -0.098925
v 0.963825 2.872447 -0.098924
v 1.282190 2.140843 -0.098924
v 1.352043 1.745839 -0.098924
v 1.311726 0.948076 -0.098924
v -0.840464 -2.196659 -0.098925
v -0.635826 -2.210351 -0.098925
v -0.460472 -2.143705 -0.098925
v -0.344551 -2.015153 -0.098925
v -0.244567 -2.242515 -0.098924
v -0.087415 -2.396685 -0.098925
v 0.118698 -2.441215 -0.098925
v 0.344712 -2.347796 -0.098925
v 0.173537 -3.029075 -0.098925
v 0.001171 -3.191292 -0.098925
v 0.345307 -2.607327 -0.098925
v 0.293480 -2.832113 -0.098925
v -0.605024 -2.733042 -0.098925
v -0.674489 -2.943931 -0.098925
v -0.688012 -2.359406 -0.098925
v -0.608939 -2.533769 -0.098925
v -0.452178 -2.890234 -0.098925
v -0.114347 -3.013916 -0.098925
v -0.261136 -2.902782 -0.098925
v -0.682147 0.959917 -0.098925
v -0.321154 0.816916 -0.098925
v -1.193479 -0.330892 -0.098925
v -0.851115 -0.520918 -0.098925
v -1.306138 -0.464693 -0.098925
v -1.341324 -0.819241 -0.098925
v -0.677484 -2.219698 -0.098925
v -0.417514 -2.108620 -0.098925
v -1.242977 -0.919253 -0.098925
v -0.819146 -0.744264 -0.098925
v -0.664741 -0.989679 -0.098925
v -1.068929 -1.157464 -0.098925
v -0.658337 -1.351568 -0.098925
v -1.024278 -1.503107 -0.098925
v -0.868627 0.287731 -0.098925
v -0.516949 0.121217 -0.098925
vt 0.909029 0.401651
vt 0.948402 0.279942
vt 0.980149 0.385433
vt 0.825925 0.860513
vt 0.873083 0.778926
vt 0.930592 0.815035
vt 0.899333 0.686085
vt 0.963728 0.710232
vt 0.810919 0.997025
vt 0.877721 0.910184
vt 0.916397 0.590677
vt 0.983484 0.602339
vt 0.924527 0.494596
vt 0.991038 0.493659
vt 0.794274 0.466991
vt 0.665447 0.481389
vt 0.675863 0.411854
vt 0.539220 0.416412
vt 0.580135 0.364368
vt 0.507487 0.346773
vt 0.530621 0.281496
vt 0.779354 0.400418
vt 0.861494 0.355073
vt 0.631618 0.675609
vt 0.748871 0.755878
vt 0.701326 0.806238
vt 0.498659 0.660207
vt 0.607309 0.741004
vt 0.360981 0.715819
vt 0.507283 0.730571
vt 0.765290 0.888224
vt 0.400609 0.769645
vt 0.292234 0.848068
vt 0.460431 0.372688
vt 0.405337 0.384006
vt 0.393650 0.341052
vt 0.494180 0.303893
vt 0.355796 0.346847
vt 0.443701 0.328040
vt 0.303407 0.550685
vt 0.261355 0.597608
vt 0.206137 0.523612
vt 0.297906 0.733520
vt 0.342937 0.627810
vt 0.288652 0.660077
vt 0.391378 0.450701
vt 0.336385 0.418486
vt 0.278483 0.489603
vt 0.357122 0.511313
vt 0.312233 0.462827
vt 0.720604 0.120763
vt 0.673532 0.121246
vt 0.679174 0.072597
vt 0.617260 0.058912
vt 0.817349 0.073443
vt 0.774888 0.104038
vt 0.731850 0.071361
vt 0.776408 0.047347
vt 0.821002 0.009460
vt 0.715934 0.228401
vt 0.781232 0.195233
vt 0.777590 0.243164
vt 0.667106 0.280384
vt 0.729249 0.279820
vt 0.689978 0.335628
vt 0.856559 0.188709
vt 0.900374 0.246566
vt 0.834746 0.232083
vt 0.848396 0.129395
vt 0.621185 0.257963
vt 0.655721 0.201117
vt 0.615770 0.174903
vt 0.623966 0.120056
vt 0.551524 0.268304
vt 0.591402 0.221805
vt 0.650733 0.308756
vt 0.604787 0.286304
vt 0.865511 0.057222
vt 0.904491 0.175398
vt 0.893413 0.113511
vt 0.230032 0.724494
vt 0.184353 0.741014
vt 0.131330 0.528073
vt 0.131886 0.750625
vt 0.078790 0.540538
vt 0.083315 0.758527
vt 0.026613 0.568724
vt 0.004159 0.521432
vt 0.050541 0.502651
vt 0.010513 0.422481
vt 0.208888 0.273784
vt 0.301070 0.063593
vt 0.321731 0.092466
vt 0.052948 0.451864
vt 0.033855 0.389839
vt 0.161090 0.248046
vt 0.265819 0.046083
vt 0.117032 0.235105
vt 0.230782 0.047477
vt 0.144242 0.443783
vt 0.201424 0.466406
vt 0.187493 0.524454
vt 0.089573 0.419305
vt 0.185674 0.379182
vt 0.236882 0.397286
vt 0.133466 0.353471
vt 0.083381 0.324437
vt 0.248600 0.300174
vt 0.247632 0.922593
vt 0.207564 0.948149
vt 0.155769 0.959374
vt 0.110337 0.949464
vn 0.565500 -0.152000 0.810600
vn 0.555700 -0.186000 0.810300
vn 0.576700 -0.151700 0.802800
vn 0.513800 0.329200 0.792300
vn 0.583200 0.254800 0.771300
vn 0.575500 0.265300 0.773600
vn 0.619400 0.137700 0.772900
vn 0.619900 0.147900 0.770600
vn 0.474300 0.362300 0.802400
vn 0.499100 0.335400 0.799000
vn 0.633600 0.068200 0.770700
vn 0.631400 0.069800 0.772300
vn 0.630000 -0.037800 0.775700
vn 0.640500 -0.030800 0.767300
vn -0.229100 -0.587900 0.775800
vn 0.102800 -0.612300 0.783900
vn 0.456000 -0.441300 0.772900
vn 0.438900 -0.439500 0.783800
vn 0.671300 -0.272800 0.689200
vn 0.618800 -0.284500 0.732200
vn -0.437000 -0.476100 0.763100
vn -0.230200 -0.593300 0.771400
vn -0.434000 -0.489500 0.756300
vn -0.516300 -0.377200 0.768900
vn -0.221200 0.586500 0.779100
vn -0.454600 0.445400 0.771300
vn -0.451000 0.445100 0.773700
vn 0.099900 0.619000 0.779000
vn 0.343100 0.543900 0.765800
vn 0.100400 0.622100 0.776500
vn -0.585400 0.265000 0.766200
vn -0.625600 0.132400 0.768900
vn -0.585500 0.255600 0.769300
vn 0.342400 0.549100 0.762400
vn 0.433300 0.470200 0.768900
vn -0.323700 -0.884200 0.336800
vn -0.005700 -0.936900 0.349600
vn 0.106800 -0.934800 0.338800
vn -0.599600 -0.720500 0.348400
vn -0.670800 -0.653700 0.350300
vn -0.766200 -0.555100 0.323700
vn 0.319500 -0.890600 0.323700
vn -0.324700 -0.881600 0.342400
vn -0.570400 0.396900 0.719100
vn -0.596300 0.382200 0.705900
vn -0.491700 0.472700 0.731300
vn -0.657400 0.061500 0.751100
vn -0.681600 -0.094000 0.725600
vn -0.684200 -0.004800 0.729300
vn -0.651500 0.234200 0.721600
vn -0.701800 0.179600 0.689300
vn -0.707700 -0.132100 0.694000
vn -0.657400 -0.245200 0.712500
vn -0.667300 -0.225000 0.710000
vn -0.300700 -0.576000 0.760100
vn -0.187700 -0.611300 0.768900
vn -0.291800 -0.580200 0.760400
vn -0.488900 -0.455900 0.743700
vn -0.506200 -0.441200 0.741000
vn -0.000000 0.000000 1.000000
vn -0.129300 -0.646700 0.751700
vn 0.024700 -0.629900 0.776300
vn 0.051200 -0.629000 0.775700
vn 0.148600 -0.615400 0.774100
vn -0.476900 -0.426900 0.768300
vn -0.377400 -0.513500 0.770600
vn -0.240900 -0.607500 0.756900
vn -0.468900 -0.482000 0.740200
vn -0.529900 -0.345100 0.774600
vn 0.461100 0.427400 0.777600
vn 0.223400 0.683700 0.694700
vn 0.338800 0.610700 0.715700
vn 0.535000 0.322300 0.781000
vn 0.553400 0.474400 0.684600
vn 0.547200 0.240600 0.801700
vn -0.091400 0.668500 0.738100
vn -0.241600 0.584500 0.774600
vn -0.028500 0.676100 0.736300
vn -0.640600 0.045500 0.766500
vn -0.649900 -0.206900 0.731300
vn -0.648100 -0.152600 0.746100
vn -0.616900 0.093200 0.781500
vn -0.598100 0.197000 0.776800
vn -0.555600 -0.380500 0.739300
vn -0.479300 -0.449000 0.754200
vn -0.558900 -0.365200 0.744500
vn -0.483500 0.790700 0.375400
vn -0.691200 0.623300 0.365700
vn -0.526600 0.761000 0.378800
vn -0.196900 0.907800 0.370200
vn -0.119100 0.923400 0.364900
vn 0.062900 0.940500 0.334000
vn 0.467300 -0.396000 0.790400
vn 0.433400 -0.460500 0.774600
vn 0.481500 -0.386700 0.786500
vn 0.619700 -0.070200 0.781700
vn 0.611300 -0.077700 0.787600
vn 0.632400 0.001500 0.774600
vn 0.577400 -0.226000 0.784600
vn 0.577800 -0.229700 0.783200
vn 0.929600 -0.368600 0.000000
vn 0.468700 -0.155000 0.869600
vn 0.435800 -0.047500 0.898800
vn -0.408200 0.188300 0.893300
vn -0.349300 0.299900 0.887700
vn -0.923500 0.383500 0.000000
vn -0.833000 0.553200 0.000000
vn -0.891600 0.452900 0.000000
vn -0.545000 0.262100 0.796400
vn -0.921100 -0.389300 0.000000
vn 0.443400 0.024400 0.895900
vn 0.333900 0.064000 0.940400
vn 0.955000 0.296500 -0.000000
vn -0.646700 -0.134500 0.750700
vn -0.768500 -0.639800 0.000000
vn -0.434100 -0.202300 0.877800
vn -0.303600 -0.190100 0.933700
vn -0.953600 -0.301000 0.000000
vn -0.898600 -0.438800 -0.000000
vn 0.391700 0.152300 0.907400
vn 0.939500 0.342400 0.000000
vn 0.987200 -0.159200 0.000000
vn -0.381100 -0.281000 0.880800
vn 0.533200 0.102500 0.839700
vn 0.958300 0.285700 0.000000
vn -0.354200 -0.231300 0.906100
vn -0.926300 -0.376700 0.000000
vn 0.993000 0.118300 0.000000
vn 0.966700 -0.256000 -0.000000
vn 0.358900 -0.073100 0.930500
vn -0.369200 0.123900 0.921100
vn -0.963600 0.267300 -0.000000
vn 0.435800 -0.047500 -0.898800
vn 0.468700 -0.155000 -0.869600
vn -0.349300 0.299900 -0.887700
vn -0.408200 0.188300 -0.893300
vn -0.545000 0.262100 -0.796400
vn -0.646700 -0.134500 -0.750700
vn 0.443400 0.024400 -0.896000
vn -0.381100 -0.281000 -0.880800
vn -0.434100 -0.202300 -0.877800
vn 0.333900 0.064000 -0.940400
vn -0.303500 -0.190100 -0.933700
vn 0.391700 0.152300 -0.907400
vn 0.533200 0.102500 -0.839700
vn -0.354200 -0.231300 -0.906100
vn 0.358900 -0.073100 -0.930500
vn -0.369200 0.123900 -0.921100
vn 0.565500 -0.152000 -0.810600
vn 0.576700 -0.151700 -0.802800
vn 0.555700 -0.186000 -0.810300
vn 0.513800 0.329200 -0.792300
vn 0.499100 0.335400 -0.799000
vn 0.575500 0.265300 -0.773600
vn 0.583200 0.254800 -0.771300
vn 0.619900 0.147900 -0.770600
vn 0.474300 0.362300 -0.802400
vn 0.633600 0.068200 -0.770700
vn 0.619400 0.137700 -0.772900
vn 0.631400 0.069800 -0.772300
vn 0.640500 -0.030800 -0.767300
vn 0.630000 -0.037800 -0.775700
vn -0.229100 -0.587900 -0.775800
vn -0.230200 -0.593300 -0.771400
vn 0.102800 -0.612300 -0.783900
vn 0.438900 -0.439500 -0.783800
vn 0.456000 -0.441300 -0.772900
vn 0.618800 -0.284400 -0.732200
vn -0.437000 -0.476100 -0.763100
vn -0.434000 -0.489500 -0.756300
vn -0.516300 -0.377200 -0.768900
vn 0.671300 -0.272800 -0.689200
vn -0.221200 0.586500 -0.779200
vn -0.450900 0.445100 -0.773700
vn 0.099900 0.619000 -0.779000
vn 0.100400 0.622100 -0.776500
vn 0.343100 0.543900 -0.765800
vn 0.342400 0.549100 -0.762400
vn -0.585400 0.265000 -0.766200
vn -0.585500 0.255600 -0.769300
vn -0.625600 0.132400 -0.768900
vn -0.454600 0.445400 -0.771300
vn 0.433300 0.470200 -0.768900
vn -0.323700 -0.884200 -0.336900
vn -0.324700 -0.881600 -0.342400
vn 0.106800 -0.934800 -0.338800
vn -0.599600 -0.720500 -0.348400
vn -0.766200 -0.555100 -0.323700
vn -0.670800 -0.653700 -0.350300
vn -0.005700 -0.936900 -0.349600
vn 0.319500 -0.890600 -0.323700
vn -0.570400 0.396800 -0.719100
vn -0.491700 0.472700 -0.731300
vn -0.596300 0.382200 -0.705900
vn -0.657400 0.061500 -0.751100
vn -0.684200 -0.004800 -0.729300
vn -0.681600 -0.094000 -0.725600
vn -0.651500 0.234200 -0.721600
vn -0.701800 0.179600 -0.689300
vn -0.707700 -0.132100 -0.694100
vn -0.707700 -0.132100 -0.694000
vn -0.667300 -0.225000 -0.710000
vn -0.300700 -0.576000 -0.760200
vn -0.291800 -0.580200 -0.760400
vn -0.187700 -0.611300 -0.768900
vn -0.488900 -0.455900 -0.743700
vn -0.506200 -0.441200 -0.741000
vn -0.657400 -0.245200 -0.712500
vn -0.000000 0.000000 -1.000000
vn -0.129300 -0.646700 -0.751700
vn -0.240900 -0.607500 -0.756900
vn 0.051200 -0.629000 -0.775700
vn 0.024700 -0.629900 -0.776300
vn 0.148600 -0.615300 -0.774100
vn -0.476900 -0.426900 -0.768300
vn -0.468900 -0.482000 -0.740200
vn -0.377400 -0.513500 -0.770600
vn -0.529900 -0.345100 -0.774600
vn 0.461100 0.427400 -0.777600
vn 0.338800 0.610700 -0.715800
vn 0.223400 0.683700 -0.694800
vn 0.535000 0.322300 -0.781000
vn 0.553400 0.474400 -0.684600
vn 0.547200 0.240600 -0.801700
vn -0.091400 0.668500 -0.738100
vn -0.028500 0.676100 -0.736300
vn -0.241600 0.584400 -0.774600
vn -0.640600 0.045500 -0.766500
vn -0.616900 0.093200 -0.781500
vn -0.648100 -0.152600 -0.746100
vn -0.598100 0.197000 -0.776800
vn -0.555500 -0.380500 -0.739300
vn -0.558900 -0.365200 -0.744500
vn -0.479300 -0.448900 -0.754200
vn -0.649900 -0.206900 -0.731300
vn -0.483500 0.790700 -0.375500
vn -0.526600 0.761000 -0.378900
vn -0.691200 0.623300 -0.365700
vn -0.196900 0.907800 -0.370200
vn 0.062900 0.940500 -0.334000
vn -0.119100 0.923400 -0.364900
vn 0.467300 -0.396000 -0.790400
vn 0.481500 -0.386700 -0.786500
vn 0.433400 -0.460500 -0.774600
vn 0.619700 -0.070200 -0.781700
vn 0.632400 0.001500 -0.774600
vn 0.611300 -0.077700 -0.787600
vn 0.577800 -0.229700 -0.783200
vn 0.577400 -0.226000 -0.784600
s 1
f 1/1/1 96/2/2 124/3/3
f 7/4/4 8/5/5 102/6/6
f 8/5/5 20/7/7 122/8/8
f 103/9/9 7/4/4 121/10/10
f 19/11/11 123/12/12 122/8/8
f 19/11/11 2/13/13 95/14/14
f 2/13/13 1/1/1 124/3/3
f 121/10/10 7/4/4 102/6/6
f 102/6/6 8/5/5 122/8/8
f 20/7/7 19/11/11 122/8/8
f 123/12/12 19/11/11 95/14/14
f 95/14/14 2/13/13 124/3/3
s 2
f 3/15/15 4/16/16 99/17/16
f 4/16/16 5/18/17 100/19/18
f 5/18/17 6/20/19 101/21/20
f 1/1/21 3/15/15 98/22/22
f 1/1/21 97/23/23 96/2/24
f 98/22/22 3/15/15 99/17/16
f 99/17/16 4/16/16 100/19/18
f 100/19/18 5/18/17 101/21/20
f 97/23/23 1/1/21 98/22/22
s 3
f 10/24/25 9/25/26 105/26/27
f 11/27/28 10/24/25 106/28/25
f 12/29/29 11/27/28 107/30/30
f 7/4/31 103/9/32 104/31/33
f 9/25/26 7/4/31 104/31/33
f 12/29/29 108/32/34 109/33/35
f 106/28/25 10/24/25 105/26/27
f 107/30/30 11/27/28 106/28/25
f 108/32/34 12/29/29 107/30/30
f 105/26/27 9/25/26 104/31/33
s 4
f 16/34/36 15/35/37 117/36/38
f 6/20/39 116/37/40 101/21/41
f 15/35/37 114/38/42 117/36/38
f 6/20/39 16/34/36 118/39/43
f 118/39/43 16/34/36 117/36/38
f 116/37/40 6/20/39 118/39/43
s 5
f 13/40/44 110/41/45 111/42/46
f 12/29/47 109/33/48 112/43/49
f 17/44/50 12/29/47 112/43/49
f 13/40/44 17/44/50 119/45/51
f 119/45/51 17/44/50 112/43/49
f 110/41/45 13/40/44 119/45/51
s 6
f 15/35/52 14/46/53 113/47/54
f 13/40/55 111/42/56 115/48/57
f 18/49/58 13/40/55 115/48/57
f 14/46/53 18/49/58 120/50/59
f 114/38/52 15/35/52 113/47/54
f 120/50/59 18/49/58 115/48/57
f 113/47/54 14/46/53 120/50/59
s 7
f 15/35/60 16/34/60 14/46/60
f 6/20/60 5/18/60 16/34/60
f 16/34/60 5/18/60 14/46/60
f 12/29/60 17/44/60 11/27/60
f 13/40/60 18/49/60 17/44/60
f 17/44/60 18/49/60 11/27/60
f 11/27/60 18/49/60 14/46/60
f 5/18/60 11/27/60 14/46/60
f 10/24/60 11/27/60 5/18/60
f 7/4/60 9/25/60 8/5/60
f 1/1/60 2/13/60 3/15/60
f 20/7/60 8/5/60 9/25/60
f 2/13/60 19/11/60 3/15/60
f 3/15/60 19/11/60 20/7/60
f 4/16/60 3/15/60 9/25/60
f 4/16/60 10/24/60 5/18/60
f 9/25/60 3/15/60 20/7/60
f 10/24/60 4/16/60 9/25/60
s 8
f 30/51/61 28/52/62 141/53/63
f 28/52/62 138/54/64 141/53/63
f 29/55/65 26/56/66 143/57/67
f 26/56/66 30/51/61 143/57/67
f 29/55/65 142/58/68 134/59/69
f 143/57/67 30/51/61 141/53/63
f 142/58/68 29/55/65 143/57/67
s 9
f 23/60/70 31/61/71 130/62/72
f 24/63/73 23/60/70 130/62/72
f 24/63/73 129/64/74 128/65/75
f 22/66/76 132/67/77 131/68/78
f 31/61/71 22/66/76 131/68/78
f 129/64/74 24/63/73 130/62/72
f 130/62/72 31/61/71 131/68/78
s 10
f 25/69/60 26/56/60 29/55/60
f 21/70/60 27/71/60 23/60/60
f 31/61/60 26/56/60 25/69/60
f 23/60/60 30/51/60 26/56/60
f 27/71/60 28/52/60 30/51/60
f 24/63/60 21/70/60 23/60/60
f 22/66/60 31/61/60 25/69/60
f 31/61/60 23/60/60 26/56/60
f 23/60/60 27/71/60 30/51/60
s 11
f 28/52/79 27/71/80 140/72/81
f 28/52/79 137/73/82 138/54/83
f 21/70/84 125/74/85 139/75/86
f 27/71/80 21/70/84 139/75/86
f 137/73/82 28/52/79 140/72/81
f 140/72/81 27/71/80 139/75/86
s 12
f 24/63/87 128/65/88 127/76/89
f 21/70/90 126/77/91 125/74/92
f 21/70/90 24/63/87 127/76/89
f 126/77/91 21/70/90 127/76/89
s 13
f 29/55/93 134/59/94 133/78/95
f 22/66/96 135/79/97 132/67/98
f 22/66/96 25/69/99 136/80/100
f 25/69/99 29/55/93 133/78/95
f 135/79/97 22/66/96 136/80/100
f 136/80/100 25/69/99 133/78/95
s 14
f 159/81/101 46/82/102 35/83/103
f 46/82/102 47/84/104 34/85/105
f 47/84/104 158/86/106 146/87/107
f 34/85/105 146/87/107 148/88/108
f 36/89/109 148/88/108 149/90/110
f 44/91/111 41/92/112 151/93/113
f 37/94/114 149/90/110 152/95/115
f 45/96/116 38/97/117 41/92/112
f 45/96/116 157/98/118 150/99/119
f 40/100/120 153/101/121 147/102/122
f 39/103/123 40/100/120 35/83/103
f 37/94/114 39/103/123 34/85/105
f 40/100/120 42/104/124 154/105/125
f 39/103/123 43/106/126 42/104/124
f 39/103/123 152/95/115 155/107/127
f 42/104/124 44/91/111 156/108/128
f 43/106/126 45/96/116 44/91/111
f 43/106/126 155/107/127 157/98/118
f 145/109/129 33/110/130 46/82/102
f 33/110/130 32/111/131 47/84/104
f 32/111/131 144/112/132 158/86/106
f 159/81/101 147/102/122 82/83/133
f 93/82/134 82/83/133 81/85/135
f 94/84/136 81/85/135 146/87/107
f 81/85/135 83/89/137 148/88/108
f 83/89/137 84/94/138 149/90/110
f 91/91/139 156/108/128 151/93/113
f 84/94/138 86/103/140 152/95/115
f 92/96/141 91/91/139 88/92/142
f 92/96/141 85/97/143 150/99/119
f 87/100/144 82/83/133 147/102/122
f 86/103/140 81/85/135 82/83/133
f 84/94/138 83/89/137 81/85/135
f 87/100/144 153/101/121 154/105/125
f 86/103/140 87/100/144 89/104/145
f 86/103/140 90/106/146 155/107/127
f 89/104/145 154/105/125 156/108/128
f 90/106/146 89/104/145 91/91/139
f 90/106/146 92/96/141 157/98/118
f 145/109/129 159/81/101 93/82/134
f 80/110/147 93/82/134 94/84/136
f 79/111/148 94/84/136 158/86/106
f 147/102/122 159/81/101 35/83/103
f 35/83/103 46/82/102 34/85/105
f 34/85/105 47/84/104 146/87/107
f 36/89/109 34/85/105 148/88/108
f 37/94/114 36/89/109 149/90/110
f 156/108/128 44/91/111 151/93/113
f 39/103/123 37/94/114 152/95/115
f 44/91/111 45/96/116 41/92/112
f 38/97/117 45/96/116 150/99/119
f 35/83/103 40/100/120 147/102/122
f 34/85/105 39/103/123 35/83/103
f 36/89/109 37/94/114 34/85/105
f 153/101/121 40/100/120 154/105/125
f 40/100/120 39/103/123 42/104/124
f 43/106/126 39/103/123 155/107/127
f 154/105/125 42/104/124 156/108/128
f 42/104/124 43/106/126 44/91/111
f 45/96/116 43/106/126 157/98/118
f 159/81/101 145/109/129 46/82/102
f 46/82/102 33/110/130 47/84/104
f 47/84/104 32/111/131 158/86/106
f 93/82/134 159/81/101 82/83/133
f 94/84/136 93/82/134 81/85/135
f 158/86/106 94/84/136 146/87/107
f 146/87/107 81/85/135 148/88/108
f 148/88/108 83/89/137 149/90/110
f 88/92/142 91/91/139 151/93/113
f 149/90/110 84/94/138 152/95/115
f 85/97/143 92/96/141 88/92/142
f 157/98/118 92/96/141 150/99/119
f 153/101/121 87/100/144 147/102/122
f 87/100/144 86/103/140 82/83/133
f 86/103/140 84/94/138 81/85/135
f 89/104/145 87/100/144 154/105/125
f 90/106/146 86/103/140 89/104/145
f 152/95/115 86/103/140 155/107/127
f 91/91/139 89/104/145 156/108/128
f 92/96/141 90/106/146 91/91/139
f 155/107/127 90/106/146 157/98/118
f 80/110/147 145/109/129 93/82/134
f 79/111/148 80/110/147 94/84/136
f 144/112/132 79/111/148 158/86/106
s 15
f 48/1/149 124/3/150 96/2/151
f 54/4/152 121/10/153 102/6/154
f 55/5/155 102/6/154 122/8/156
f 103/9/157 121/10/153 54/4/152
f 66/11/158 67/7/159 122/8/156
f 66/11/158 123/12/160 95/14/161
f 49/13/162 95/14/161 124/3/150
f 55/5/155 54/4/152 102/6/154
f 67/7/159 55/5/155 122/8/156
f 123/12/160 66/11/158 122/8/156
f 49/13/162 66/11/158 95/14/161
f 48/1/149 49/13/162 124/3/150
s 16
f 50/15/163 98/22/164 99/17/165
f 51/16/165 99/17/165 100/19/166
f 52/18/167 100/19/166 101/21/168
f 48/1/169 97/23/170 98/22/164
f 48/1/169 96/2/171 97/23/170
f 51/16/165 50/15/163 99/17/165
f 52/18/167 51/16/165 100/19/166
f 53/20/172 52/18/167 101/21/168
f 50/15/163 48/1/169 98/22/164
s 17
f 57/24/173 106/28/173 105/26/174
f 58/27/175 107/30/176 106/28/173
f 59/29/177 108/32/178 107/30/176
f 54/4/179 104/31/180 103/9/181
f 56/25/182 105/26/174 104/31/180
f 59/29/177 109/33/183 108/32/178
f 56/25/182 57/24/173 105/26/174
f 57/24/173 58/27/175 106/28/173
f 58/27/175 59/29/177 107/30/176
f 54/4/179 56/25/182 104/31/180
s 18
f 63/34/184 118/39/185 117/36/186
f 53/20/187 101/21/188 116/37/189
f 62/35/190 117/36/186 114/38/191
f 53/20/187 116/37/189 118/39/185
f 62/35/190 63/34/184 117/36/186
f 63/34/184 53/20/187 118/39/185
s 19
f 60/40/192 111/42/193 110/41/194
f 59/29/195 112/43/196 109/33/197
f 64/44/198 119/45/199 112/43/196
f 60/40/192 110/41/194 119/45/199
f 59/29/195 64/44/198 112/43/196
f 64/44/198 60/40/192 119/45/199
s 20
f 62/35/200 114/38/201 113/47/202
f 60/40/203 115/48/204 111/42/205
f 65/49/206 120/50/207 115/48/204
f 61/46/208 113/47/202 120/50/207
f 61/46/208 62/35/200 113/47/202
f 60/40/203 65/49/206 115/48/204
f 65/49/206 61/46/208 120/50/207
s 21
f 62/35/209 61/46/209 63/34/209
f 53/20/209 63/34/209 52/18/209
f 63/34/209 61/46/209 52/18/209
f 59/29/209 58/27/209 64/44/209
f 60/40/209 64/44/209 65/49/209
f 64/44/209 58/27/209 65/49/209
f 58/27/209 61/46/209 65/49/209
f 52/18/209 61/46/209 58/27/209
f 57/24/209 51/16/209 52/18/209
f 54/4/209 55/5/209 56/25/209
f 48/1/209 50/15/209 49/13/209
f 67/7/209 56/25/209 55/5/209
f 49/13/209 50/15/209 66/11/209
f 50/15/209 56/25/209 67/7/209
f 51/16/209 57/24/209 56/25/209
f 58/27/209 57/24/209 52/18/209
f 66/11/209 50/15/209 67/7/209
f 50/15/209 51/16/209 56/25/209
s 22
f 77/51/210 143/57/211 141/53/212
f 75/52/213 141/53/212 138/54/214
f 76/55/215 142/58/216 143/57/211
f 73/56/217 143/57/211 77/51/210
f 76/55/215 134/59/218 142/58/216
f 75/52/213 77/51/210 141/53/212
f 73/56/217 76/55/215 143/57/211
s 23
f 70/60/219 130/62/220 78/61/221
f 71/63/222 129/64/223 130/62/220
f 71/63/222 128/65/224 129/64/223
f 69/66/225 131/68/226 132/67/227
f 78/61/221 130/62/220 131/68/226
f 70/60/219 71/63/222 130/62/220
f 69/66/225 78/61/221 131/68/226
s 24
f 72/69/209 76/55/209 73/56/209
f 68/70/209 71/63/209 70/60/209
f 78/61/209 69/66/209 72/69/209
f 70/60/209 78/61/209 73/56/209
f 74/71/209 70/60/209 77/51/209
f 74/71/209 68/70/209 70/60/209
f 73/56/209 78/61/209 72/69/209
f 77/51/209 70/60/209 73/56/209
f 75/52/209 74/71/209 77/51/209
s 25
f 75/52/228 137/73/229 140/72/230
f 75/52/228 138/54/231 137/73/229
f 68/70/232 139/75/233 125/74/234
f 74/71/235 140/72/230 139/75/233
f 74/71/235 75/52/228 140/72/230
f 68/70/232 74/71/235 139/75/233
s 26
f 71/63/236 127/76/237 128/65/238
f 68/70/239 125/74/240 126/77/241
f 68/70/239 126/77/241 127/76/237
f 71/63/236 68/70/239 127/76/237
s 27
f 76/55/242 133/78/243 134/59/244
f 69/66/245 132/67/246 135/79/247
f 69/66/245 135/79/247 136/80/248
f 72/69/249 136/80/248 133/78/243
f 72/69/249 69/66/245 136/80/248
f 76/55/242 72/69/249 133/78/243
